<?xml version="1.0" standalone="no"?>
<!DOCTYPE svg PUBLIC "-//W3C//DTD SVG 20010904//EN"
 "http://www.w3.org/TR/2001/REC-SVG-20010904/DTD/svg10.dtd">
<svg version="1.0" xmlns="http://www.w3.org/2000/svg"
 width="608.000000pt" height="608.000000pt" viewBox="0 0 608.000000 608.000000"
 preserveAspectRatio="xMidYMid meet">
<metadata>
Created by potrace 1.14, written by Peter Selinger 2001-2017
</metadata>
<g transform="translate(0.000000,608.000000) scale(0.100000,-0.100000)"
fill="#000000" stroke="none">
<path d="M0 3040 l0 -3040 3040 0 3040 0 0 3040 0 3040 -3040 0 -3040 0 0
-3040z m3334 2101 c211 -43 421 -132 600 -254 107 -73 280 -237 359 -339 418
-547 442 -1294 60 -1865 -36 -54 -60 -99 -54 -101 7 -2 6 -11 -1 -28 -6 -14
-17 -23 -24 -20 -7 3 -14 -4 -17 -14 -4 -15 -15 -19 -58 -19 -30 -1 -70 -3
-89 -5 -44 -4 -123 -40 -112 -51 4 -5 2 -5 -5 -1 -6 3 -93 -30 -193 -74 -100
-44 -186 -77 -191 -74 -14 8 -10 48 7 73 16 22 16 23 -4 12 -11 -6 -30 -23
-42 -38 l-21 -28 17 35 17 35 -28 -25 c-15 -14 -31 -34 -35 -45 -8 -19 -9 -19
-9 2 -1 12 3 25 9 28 6 3 10 11 10 17 0 15 -30 -12 -52 -47 -11 -18 -18 -24
-18 -14 0 9 10 29 23 45 l22 29 -30 -23 c-16 -13 -38 -36 -47 -50 -22 -33 -24
-22 -3 18 17 34 79 79 156 114 42 19 48 24 27 23 -16 -1 -28 -6 -28 -12 0 -6
-3 -5 -8 2 -5 8 -52 11 -152 10 -295 -2 -485 3 -471 12 8 5 47 8 85 6 60 -4
65 -3 31 5 -22 5 -71 10 -110 10 -49 2 -63 4 -45 10 23 6 21 8 -15 12 -34 4
-32 5 18 6 38 1 56 6 52 12 -7 12 -165 10 -165 -2 0 -4 -13 -3 -30 2 -16 5
-69 7 -117 5 l-88 -3 73 15 c76 16 95 31 39 31 -18 0 -52 5 -75 11 -23 7 -46
9 -51 6 -5 -3 -11 -1 -13 4 -5 15 -486 -78 -593 -114 -17 -6 -17 -5 -5 5 12 9
8 11 -22 8 -34 -4 -36 -2 -23 12 13 15 11 19 -23 38 -29 16 -42 18 -50 10 -8
-8 -15 -8 -25 0 -22 19 -27 2 -6 -19 10 -10 28 -19 40 -19 11 0 18 -4 15 -9
-4 -5 0 -12 6 -14 7 -3 3 -6 -9 -6 -12 -1 -24 5 -26 12 -4 9 -8 9 -15 -2 -9
-12 -13 -13 -27 -1 -9 7 -14 19 -11 27 4 8 -2 13 -17 13 -18 0 -19 2 -7 10 8
5 11 10 6 10 -6 0 -1 7 10 15 11 9 13 13 4 10 -37 -12 -208 295 -269 482 -158
483 -71 1029 227 1437 259 355 665 595 1112 656 106 15 391 4 504 -19z m-1474
-2597 c0 -2 -7 -4 -15 -4 -8 0 -15 4 -15 10 0 5 7 7 15 4 8 -4 15 -8 15 -10z
m673 -21 c-7 -2 -19 -2 -25 0 -7 3 -2 5 12 5 14 0 19 -2 13 -5z m-46 -9 c-3
-3 -12 -4 -19 -1 -8 3 -5 6 6 6 11 1 17 -2 13 -5z m-835 -154 c-124 -66 -184
-111 -221 -167 -17 -26 -31 -40 -31 -31 0 23 51 89 94 122 47 36 216 126 236
126 8 0 -27 -23 -78 -50z m128 36 c0 -3 -26 -18 -58 -34 -143 -73 -233 -149
-257 -218 -10 -29 -14 -33 -15 -16 0 38 36 97 87 141 58 50 243 146 243 127z
m36 -11 c-10 -7 -56 -35 -102 -61 -95 -53 -165 -118 -194 -178 -16 -34 -18
-36 -13 -11 15 78 87 149 220 219 87 45 125 59 89 31z m109 -5 c-3 -5 -12 -10
-18 -10 -7 0 -6 4 3 10 19 12 23 12 15 0z m-65 -3 c0 -2 -41 -28 -91 -58 -106
-63 -167 -121 -191 -181 -12 -31 -17 -37 -17 -20 -1 42 25 87 83 139 61 56
216 142 216 120z m30 -11 c0 -2 -26 -19 -57 -36 -82 -46 -161 -108 -189 -149
-13 -20 -24 -31 -24 -26 0 17 52 85 87 111 40 30 164 104 175 104 5 0 8 -2 8
-4z"/>
<path d="M1707 2679 c19 -30 29 -37 35 -27 6 9 7 6 3 -8 -3 -12 0 -26 7 -32
15 -12 235 -9 246 3 4 4 -14 5 -40 2 -57 -8 -117 1 -96 14 10 7 11 9 0 9 -7 0
-10 5 -7 10 3 6 1 10 -4 10 -6 0 -11 -4 -11 -10 0 -5 -16 -10 -36 -10 -27 0
-37 5 -41 19 -3 13 -11 17 -24 14 -14 -4 -22 0 -26 15 -3 11 -11 23 -19 26 -8
3 -3 -12 13 -35z m133 -53 c0 -2 -7 -6 -15 -10 -8 -3 -15 -1 -15 4 0 6 7 10
15 10 8 0 15 -2 15 -4z"/>
<path d="M1933 2663 c9 -2 23 -2 30 0 6 3 -1 5 -18 5 -16 0 -22 -2 -12 -5z"/>
<path d="M1979 2631 c30 -4 73 -4 95 0 28 4 11 6 -54 6 -79 0 -86 -1 -41 -6z"/>
<path d="M4130 2515 c-14 -8 -20 -14 -15 -14 6 0 21 6 35 14 14 8 21 14 15 14
-5 0 -21 -6 -35 -14z"/>
</g>
</svg>
